<svg xmlns="http://www.w3.org/2000/svg" x="0px" y="0px"
width="40" height="40"
viewBox="0 0 172 172"
style=" fill:#000000;"><g fill="none" fill-rule="nonzero" stroke="none" stroke-width="1" stroke-linecap="butt" stroke-linejoin="miter" stroke-miterlimit="10" stroke-dasharray="" stroke-dashoffset="0" font-family="none" font-weight="none" font-size="none" text-anchor="none" style="mix-blend-mode: normal"><path d="M0,172v-172h172v172z" fill="none"></path><g fill="#f1c40f"><path d="M86,11.46667c-41.09653,0 -74.53333,33.4368 -74.53333,74.53333c0,41.09653 33.4368,74.53333 74.53333,74.53333c41.09653,0 74.53333,-33.4368 74.53333,-74.53333c0,-41.09653 -33.4368,-74.53333 -74.53333,-74.53333zM66.88516,34.4h38.21849c17.91667,0 32.49636,14.57422 32.49636,32.48516v38.21849c0,17.91667 -14.57423,32.49636 -32.48516,32.49636h-38.21849c-17.91667,0 -32.49636,-14.57423 -32.49636,-32.48516v-38.21849c0,-17.91667 14.57422,-32.49636 32.48516,-32.49636zM66.88516,45.86667c-11.58707,0 -21.01849,9.43689 -21.01849,21.02969v38.21849c0,11.58707 9.43689,21.01849 21.02969,21.01849h38.21849c11.58707,0 21.01849,-9.43689 21.01849,-21.02969v-38.21849c0,-11.58707 -9.43689,-21.01849 -21.02969,-21.01849zM112.76302,55.41849c2.10987,0 3.81849,1.70862 3.81849,3.81849c0,2.10987 -1.70862,3.82969 -3.81849,3.82969c-2.10987,0 -3.82969,-1.71982 -3.82969,-3.82969c0,-2.10987 1.71982,-3.81849 3.82969,-3.81849zM86,57.33333c15.8068,0 28.66667,12.85987 28.66667,28.66667c0,15.8068 -12.85987,28.66667 -28.66667,28.66667c-15.8068,0 -28.66667,-12.85987 -28.66667,-28.66667c0,-15.8068 12.85987,-28.66667 28.66667,-28.66667zM86,68.8c-9.4993,0 -17.2,7.7007 -17.2,17.2c0,9.4993 7.7007,17.2 17.2,17.2c9.4993,0 17.2,-7.7007 17.2,-17.2c0,-9.4993 -7.7007,-17.2 -17.2,-17.2z"></path></g></g></svg>