<svg xmlns="http://www.w3.org/2000/svg" x="0px" y="0px"
width="40" height="40"
viewBox="0 0 172 172"
style=" fill:#000000;"><g fill="none" fill-rule="nonzero" stroke="none" stroke-width="1" stroke-linecap="butt" stroke-linejoin="miter" stroke-miterlimit="10" stroke-dasharray="" stroke-dashoffset="0" font-family="none" font-weight="none" font-size="none" text-anchor="none" style="mix-blend-mode: normal"><path d="M0,172v-172h172v172z" fill="none"></path><g fill="#f1c40f"><path d="M86,6.88c-43.62652,0 -79.12,35.49348 -79.12,79.12c0,34.00149 21.56047,63.0561 51.72514,74.22476c-0.86882,-7.74546 -0.73255,-20.43025 0.70106,-26.57182c1.34249,-5.76889 8.67307,-36.76374 8.67307,-36.76374c0,0 -2.21299,-4.43186 -2.21299,-10.97739c0,-10.2862 5.95953,-17.9609 13.38102,-17.9609c6.31227,0 9.35607,4.73903 9.35607,10.417c0,6.34922 -4.03671,15.83315 -6.1275,24.62296c-1.74373,7.3648 3.69237,13.36968 10.95177,13.36968c13.14502,0 23.24918,-13.86183 23.24918,-33.86796c0,-17.70769 -12.72111,-30.09034 -30.88966,-30.09034c-21.04166,0 -33.39303,15.78465 -33.39303,32.09862c0,6.35489 2.44646,13.17064 5.50434,16.88002c0.60301,0.73381 0.69119,1.37398 0.51209,2.11914c-0.56039,2.3354 -1.80629,7.35913 -2.05384,8.38878c-0.32145,1.35698 -1.07248,1.63854 -2.47208,0.98703c-9.23912,-4.30105 -15.01389,-17.80427 -15.01389,-28.65379c0,-23.32855 16.94826,-44.75716 48.87051,-44.75716c25.65849,0 45.59638,18.27962 45.59638,42.7176c0,25.49052 -16.07482,46.00307 -38.3796,46.00307c-7.4954,0 -14.53875,-3.89415 -16.94805,-8.49397c0,0 -3.70938,14.12071 -4.61116,17.58255c-1.55644,5.98704 -8.21913,18.39027 -11.56381,24.02394c7.6514,2.47166 15.80187,3.82192 24.26498,3.82192c43.6282,0 79.12,-35.4918 79.12,-79.12c0,-43.62652 -35.4918,-79.12 -79.12,-79.12z"></path></g></g></svg>