<svg xmlns="http://www.w3.org/2000/svg" x="0px" y="0px"
width="40" height="40"
viewBox="0 0 172 172"
style=" fill:#000000;"><g fill="none" fill-rule="nonzero" stroke="none" stroke-width="1" stroke-linecap="butt" stroke-linejoin="miter" stroke-miterlimit="10" stroke-dasharray="" stroke-dashoffset="0" font-family="none" font-weight="none" font-size="none" text-anchor="none" style="mix-blend-mode: normal"><path d="M0,172v-172h172v172z" fill="none"></path><g fill="#f1c40f"><path d="M86,6.88c-43.62952,0 -79.12,35.49048 -79.12,79.12c0,43.62952 35.49048,79.12 79.12,79.12c43.62952,0 79.12,-35.49048 79.12,-79.12c0,-43.62952 -35.49048,-79.12 -79.12,-79.12zM124.65528,70.60256c0.0344,0.81184 0.05504,1.63744 0.05504,2.46648c0,25.17392 -19.17112,54.21096 -54.22128,54.21096c-10.76032,0 -20.78104,-3.15448 -29.20904,-8.56216c1.48952,0.17888 2.99968,0.26488 4.54424,0.26488c8.93024,0 17.1484,-3.04096 23.66376,-8.1528c-8.33856,-0.15136 -15.36992,-5.67256 -17.802,-13.23368c1.16616,0.2236 2.35984,0.344 3.59136,0.344c1.7372,0 3.4228,-0.23048 5.01552,-0.6708c-8.71008,-1.75784 -15.27704,-9.44968 -15.27704,-18.68608c0,-0.08256 0,-0.16168 0,-0.2408c2.56968,1.4276 5.504,2.2876 8.63096,2.38736c-5.11872,-3.4228 -8.47616,-9.25016 -8.47616,-15.86184c0,-3.4916 0.93568,-6.76304 2.57656,-9.58384c9.40152,11.52744 23.4436,19.11264 39.27792,19.91072c-0.3268,-1.39664 -0.4988,-2.84832 -0.4988,-4.34128c0,-10.52296 8.5312,-19.05416 19.0576,-19.05416c5.47992,0 10.43008,2.31168 13.90448,6.01656c4.33784,-0.85312 8.42112,-2.43896 12.10192,-4.61992c-1.42072,4.44448 -4.44448,8.18032 -8.38328,10.54016c3.85968,-0.46784 7.52672,-1.48608 10.94952,-3.00312c-2.55248,3.82184 -5.78264,7.18272 -9.50128,9.86936z"></path></g></g></svg>